<?xml version="1.0" encoding="UTF-8" standalone="no"?>
<svg width="699px" height="223px" viewBox="0 0 699 223" version="1.1" xmlns="http://www.w3.org/2000/svg" xmlns:xlink="http://www.w3.org/1999/xlink">
    <!-- Generator: Sketch 3.7.1 (28215) - http://www.bohemiancoding.com/sketch -->
    <title>Group</title>
    <desc>Created with Sketch.</desc>
    <defs></defs>
    <g id="Page-3" stroke="none" stroke-width="1" fill="none" fill-rule="evenodd">
        <g id="Desktop-HD" transform="translate(-371.000000, -400.000000)">
            <g id="Group" transform="translate(371.000000, 401.000000)">
                <path d="M144.1,0 L699,0 L699,221.940727 L324.253344,221.940727 C325.342656,221.579704 326.341536,221.145585 327.25,220.638364 C328.483339,219.949754 329.566662,219.186307 330.5,218.348 C331.433338,217.509693 332.199997,216.671398 332.8,215.833091 L333,215.833091 L333.7,221.940727 L338.1,221.940727 C337.766665,220.323992 337.566667,218.647403 337.5,216.910909 C337.433333,215.174416 337.4,213.437948 337.4,211.701455 L337.4,194.725818 C337.4,192.749808 337.183335,190.758859 336.75,188.752909 C336.316665,186.74696 335.500006,184.935644 334.3,183.318909 C333.099994,181.702174 331.45001,180.384854 329.35,179.366909 C327.249989,178.348965 324.53335,177.84 321.2,177.84 C318.733321,177.84 316.366678,178.124421 314.1,178.693273 C311.833322,179.262124 309.633344,180.205206 307.5,181.522545 L309,184.666182 C310.666675,183.648237 312.516656,182.854851 314.55,182.286 C316.583343,181.717149 318.633323,181.432727 320.7,181.432727 C323.433347,181.432727 325.599992,181.881814 327.2,182.78 C328.800008,183.678186 329.999996,184.785933 330.8,186.103273 C331.600004,187.420613 332.116666,188.812781 332.35,190.279818 C332.583334,191.746856 332.7,193.049206 332.7,194.186909 L332.7,195.354545 C323.166619,195.234787 316.000024,196.567077 311.2,199.351455 C306.399976,202.135832 304,206.042884 304,211.072727 C304,212.509825 304.283331,213.946902 304.85,215.384 C305.41667,216.821098 306.266661,218.09351 307.4,219.201273 C308.533339,220.309036 309.983324,221.207209 311.75,221.895818 C311.788833,221.910954 311.827802,221.925924 311.866908,221.940727 L159.337684,221.940727 C160.90732,221.792394 162.378089,221.582819 163.75,221.312 C166.783348,220.713209 169.133325,220.02461 170.8,219.246182 L169.4,215.833091 C167.533324,216.671398 165.31668,217.330058 162.75,217.809091 C160.183321,218.288124 157.500014,218.527636 154.7,218.527636 C150.366645,218.527636 146.483351,217.898915 143.05,216.641455 C139.616649,215.383994 136.716679,213.587648 134.35,211.252364 C131.983322,208.917079 130.166673,206.087835 128.9,202.764545 C127.633327,199.441256 127,195.6839 127,191.492364 C127,187.12119 127.66666,183.199169 129,179.726182 C130.33334,176.253195 132.233321,173.304194 134.7,170.879091 C137.166679,168.453988 140.149982,166.612734 143.65,165.355273 C147.150017,164.097812 151.066645,163.469091 155.4,163.469091 C158.200014,163.469091 160.733322,163.708604 163,164.187636 C165.266678,164.666669 167.266658,165.29539 169,166.073818 L170.5,162.391273 C169.499995,161.91224 167.766679,161.373336 165.3,160.774545 C162.833321,160.175755 159.533354,159.876364 155.4,159.876364 C150.266641,159.876364 145.650021,160.65478 141.55,162.211636 C137.44998,163.768493 133.950015,165.939077 131.05,168.723455 C128.149986,171.507832 125.916674,174.831072 124.35,178.693273 C122.783326,182.555474 122,186.791856 122,191.402545 C122,196.791663 122.883325,201.432223 124.65,205.324364 C126.416675,209.216504 128.749986,212.405018 131.65,214.89 C134.550015,217.374982 137.866648,219.216236 141.6,220.413818 C143.887427,221.147577 146.224885,221.656545 148.612403,221.940727 L0,221.940727 L0,0 L38,0 L38,64.2052841 L42.7,64.2052841 L42.7,34.3049034 L52.8,34.3049034 C57.200022,34.4984344 60.533322,35.6918573 62.8,37.8852079 C65.066678,40.0785586 66.733328,43.5620632 67.8,48.3358264 C68.666671,52.4644864 69.4499965,55.8996091 70.15,58.6412974 C70.8500035,61.3829857 71.466664,63.2376294 72,64.2052841 L77,64.2052841 C76.266663,62.9795881 75.533337,61.0443078 74.8,58.3993849 C74.066663,55.7544621 73.133339,51.8839014 72,46.7875866 C71.199996,43.0459885 69.966675,39.9817945 68.3,37.594913 C66.633325,35.2080314 64.433347,33.5952977 61.7,32.7566637 L61.7,32.5631337 C65.566686,31.2729274 68.699988,29.2247557 71.1,26.4185571 C73.500012,23.6123585 74.7,19.9837078 74.7,15.5324962 C74.7,13.2746352 74.2833375,11.1135721 73.45,9.04924213 C72.6166625,6.98491211 71.466674,5.27541445 70,3.92069788 C68.2296562,2.20762497 66.0246075,0.900737235 63.3847937,-1.1863649e-11 L139.4,0 L139.4,53.4643706 C139.4,55.1416388 139.366667,56.9479005 139.3,58.8832099 C139.233333,60.8185192 139.133334,62.5925262 139,64.2052841 L143.5,64.2052841 L143.5,55.9802603 L143.8,55.9802603 C147.466685,62.1732503 153.033296,65.2696989 160.5,65.2696989 C163.100013,65.2696989 165.649988,64.7536242 168.15,63.7214591 C170.650013,62.6892941 172.883324,61.1571972 174.85,59.1251223 C176.816677,57.0930475 178.399994,54.528801 179.6,51.4323059 C180.800006,48.3358109 181.4,44.6910329 181.4,40.4978625 C181.4,36.9497953 180.916672,33.724328 179.95,30.8213639 C178.983329,27.9183999 177.616675,25.4186627 175.85,23.3220775 C174.083325,21.2254924 171.966679,19.5966314 169.5,18.4354458 C167.033321,17.2742601 164.333348,16.693676 161.4,16.693676 C157.333313,16.693676 153.866681,17.5322975 151,19.2095656 C148.133319,20.8868338 145.900008,23.2414249 144.3,26.2734096 L144.1,26.2734096 L144.1,-4.4408921e-16 Z M182,158.08 L186.7,158.08 L186.7,186.193091 L186.9,186.193091 C188.433341,183.558411 190.53332,181.477644 193.2,179.950727 C195.86668,178.423811 199.066648,177.660364 202.8,177.660364 C203.933339,177.660364 205.416657,177.854968 207.25,178.244182 C209.083342,178.633396 210.866658,179.456721 212.6,180.714182 C214.333342,181.971643 215.833327,183.767988 217.1,186.103273 C218.366673,188.438557 219,191.552223 219,195.444364 L219,221.761091 L214.3,221.761091 L214.3,195.983273 C214.3,194.067142 214.083335,192.225888 213.65,190.459455 C213.216665,188.693021 212.500005,187.136189 211.5,185.788909 C210.499995,184.44163 209.183341,183.363822 207.55,182.555455 C205.916658,181.747087 203.900012,181.342909 201.5,181.342909 C198.099983,181.342909 195.150013,182.285991 192.65,184.172182 C190.149988,186.058373 188.400005,188.348714 187.4,191.043273 C186.933331,192.240854 186.7,193.647992 186.7,195.264727 L186.7,221.761091 L182,221.761091 L182,158.08 Z M233,165.355273 C233,164.337328 233.38333,163.469095 234.15,162.750545 C234.91667,162.031996 235.866661,161.672727 237,161.672727 C238.133339,161.672727 239.099996,162.031996 239.9,162.750545 C240.700004,163.469095 241.1,164.337328 241.1,165.355273 C241.1,166.373217 240.700004,167.226481 239.9,167.915091 C239.099996,168.6037 238.133339,168.948 237,168.948 C235.866661,168.948 234.91667,168.6037 234.15,167.915091 C233.38333,167.226481 233,166.373217 233,165.355273 Z M235,221.850909 L235,178.738182 L239.7,178.738182 L239.7,221.850909 L235,221.850909 Z M255.4,189.157091 C255.4,187.121202 255.366667,185.324856 255.3,183.768 C255.233333,182.211144 255.133334,180.564494 255,178.828 L259.6,178.828 L259.6,186.462545 L260,186.462545 C261.266673,184.067382 263.299986,182.031524 266.1,180.354909 C268.900014,178.678295 272.233314,177.84 276.1,177.84 C277.233339,177.84 278.716657,178.034604 280.55,178.423818 C282.383343,178.813032 284.183324,179.636357 285.95,180.893818 C287.716676,182.151279 289.233327,183.962594 290.5,186.327818 C291.766673,188.693042 292.4,191.851617 292.4,195.803636 L292.4,221.940727 L287.7,221.940727 L287.7,196.252727 C287.7,194.336596 287.483336,192.480373 287.05,190.684 C286.616665,188.887627 285.900005,187.315825 284.9,185.968545 C283.899995,184.621266 282.566675,183.543459 280.9,182.735091 C279.233325,181.926723 277.200012,181.522545 274.8,181.522545 C271.46665,181.522545 268.533346,182.450657 266,184.306909 C263.466654,186.163161 261.733338,188.528349 260.8,191.402545 C260.333331,192.540248 260.1,193.79769 260.1,195.174909 L260.1,221.940727 L255.4,221.940727 L255.4,189.157091 Z M332.7,198.516146 C330.166654,198.456267 327.516681,198.546084 324.75,198.7856 C321.983319,199.025117 319.433345,199.549051 317.1,200.357418 C314.766655,201.165786 312.833341,202.34838 311.3,203.905237 C309.766659,205.462093 309,207.52789 309,210.102691 C309,211.659547 309.266664,212.991837 309.8,214.0996 C310.333336,215.207363 311.033329,216.120506 311.9,216.839055 C312.766671,217.557604 313.766661,218.096508 314.9,218.455782 C316.033339,218.815057 317.199994,218.994691 318.4,218.994691 C320.333343,218.994691 322.066659,218.755178 323.6,218.276146 C325.133341,217.797113 326.466661,217.153422 327.6,216.345055 C328.733339,215.536687 329.68333,214.623545 330.45,213.6056 C331.21667,212.587656 331.799998,211.539787 332.2,210.461964 C332.533335,209.38414 332.7,208.515907 332.7,207.857237 L332.7,198.516146 Z M118.8,140.733714 C117.133325,141.559728 114.783349,142.290422 111.75,142.925818 C108.716651,143.561214 105.20002,143.878907 101.2,143.878907 C97.19998,143.878907 93.333352,143.243521 89.6,141.972729 C85.866648,140.701938 82.5500145,138.748125 79.65,136.111233 C76.7499855,133.474341 74.4166755,130.09091 72.65,125.960838 C70.8833245,121.830766 70,116.906523 70,111.187962 C70,106.295415 70.7833255,101.800058 72.35,97.7017554 C73.9166745,93.6034532 76.1499855,90.0770599 79.05,87.1224699 C81.9500145,84.1678799 85.4499795,81.8646051 89.55,80.2125763 C93.6500205,78.5605475 98.266641,77.7345455 103.4,77.7345455 C107.533354,77.7345455 110.833321,78.0522385 113.3,78.6876342 C115.766679,79.3230299 117.499995,79.8948775 118.5,80.403194 L117,84.310858 C115.266658,83.4848436 113.266678,82.8176882 111,82.3093716 C108.733322,81.801055 106.200014,81.5469006 103.4,81.5469006 C99.066645,81.5469006 95.1500175,82.214056 91.65,83.548387 C88.1499825,84.882718 85.166679,86.8365304 82.7,89.409883 C80.233321,91.9832356 78.33334,95.1125125 77,98.7978075 C75.66666,102.483103 75,106.644882 75,111.283271 C75,115.73104 75.633327,119.718089 76.9,123.244535 C78.166673,126.770981 79.9833215,129.77318 82.35,132.251224 C84.7166785,134.729267 87.6166495,136.635425 91.05,137.969756 C94.4833505,139.304087 98.366645,139.971243 102.7,139.971243 C105.500014,139.971243 108.18332,139.717088 110.75,139.208772 C113.31668,138.700455 115.533324,138.00153 117.4,137.111976 L118.8,140.733714 Z M148.1,95.6981818 C151.300016,95.6981818 154.23332,96.2541447 156.9,97.3660872 C159.56668,98.4780297 161.849991,100.066495 163.75,102.131531 C165.65001,104.196567 167.133328,106.674573 168.2,109.565624 C169.266672,112.456674 169.8,115.681259 169.8,119.239475 C169.8,123.496626 169.13334,127.165981 167.8,130.24765 C166.46666,133.329319 164.716678,135.854979 162.55,137.824706 C160.383323,139.794433 157.983347,141.239936 155.35,142.16126 C152.716654,143.082584 150.100013,143.543239 147.5,143.543239 C144.499985,143.543239 141.683347,143.00316 139.05,141.922988 C136.416653,140.842815 134.133343,139.270234 132.2,137.205198 C130.266657,135.140162 128.750006,132.662156 127.65,129.771106 C126.549995,126.880055 126,123.623701 126,120.001946 C126,116.062492 126.599994,112.583753 127.8,109.565624 C129.000006,106.547494 130.633323,104.005949 132.7,101.940913 C134.766677,99.8758773 137.116654,98.3191812 139.75,97.2707783 C142.383347,96.2223754 145.166652,95.6981818 148.1,95.6981818 Z M147.3,100.189091 C144.299985,100.189091 141.716678,100.792708 139.55,101.99996 C137.383322,103.207211 135.58334,104.763908 134.15,106.670095 C132.716659,108.576282 131.66667,110.736595 131,113.151098 C130.33333,115.565602 130,117.980069 130,120.394573 C130,123.253854 130.416663,125.906591 131.25,128.352864 C132.083337,130.799138 133.249992,132.911797 134.75,134.690905 C136.250008,136.470013 138.033323,137.867862 140.1,138.884495 C142.166677,139.901128 144.466654,140.409437 147,140.409437 C149.466679,140.409437 151.766656,139.901128 153.9,138.884495 C156.033344,137.867862 157.866659,136.470013 159.4,134.690905 C160.933341,132.911797 162.133329,130.783253 163,128.30521 C163.866671,125.827167 164.3,123.095006 164.3,120.108646 C164.3,118.011841 163.983337,115.803874 163.35,113.484679 C162.716664,111.165485 161.73334,109.021057 160.4,107.05133 C159.06666,105.081603 157.316677,103.445484 155.15,102.142923 C152.983323,100.840362 150.366682,100.189091 147.3,100.189091 Z M181.4,107.7071 C181.4,105.546755 181.366667,103.640597 181.3,101.988568 C181.233333,100.336539 181.133334,98.589227 181,96.7465795 L185.6,96.7465795 L185.6,104.847834 L186,104.847834 C187.266673,102.306251 189.299986,100.145938 192.1,98.3668304 C194.900014,96.5877225 198.233314,95.6981818 202.1,95.6981818 C203.233339,95.6981818 204.716657,95.9046823 206.55,96.3176895 C208.383343,96.7306967 210.183325,97.6043527 211.95,98.9386837 C213.716676,100.273015 215.233327,102.195058 216.5,104.704871 C217.766673,107.214684 218.4,110.566346 218.4,114.759957 L218.4,142.494841 L213.7,142.494841 L213.7,115.236502 C213.7,113.203236 213.483336,111.233538 213.05,109.327351 C212.616665,107.421164 211.900005,105.753276 210.9,104.323635 C209.899995,102.893995 208.566675,101.7503 206.9,100.892516 C205.233325,100.034731 203.200012,99.6058458 200.8,99.6058458 C197.46665,99.6058458 194.533346,100.590694 192,102.560421 C189.466654,104.530148 187.733338,107.039923 186.8,110.089822 C186.333331,111.297074 186.1,112.631385 186.1,114.092795 L186.1,142.494841 L181.4,142.494841 L181.4,107.7071 Z M233.9,142.76421 L233.9,100.637686 L227,100.637686 L227,97.0159489 L233.9,97.0159489 L233.9,94.4426092 C233.9,91.5833286 234.166664,88.9147067 234.7,86.4366634 C235.233336,83.9586202 236.11666,81.8141919 237.35,80.0033142 C238.583339,78.1924364 240.19999,76.7628176 242.2,75.7144147 C244.20001,74.6660118 246.666652,74.1418182 249.6,74.1418182 C251.133341,74.1418182 252.499994,74.3006647 253.7,74.6183626 C254.900006,74.9360604 255.866663,75.3172921 256.6,75.7620691 L255.1,79.2884976 C254.43333,78.9707997 253.633338,78.684876 252.7,78.4307177 C251.766662,78.1765594 250.600007,78.0494822 249.2,78.0494822 C246.933322,78.0494822 245.116673,78.4942525 243.75,79.3838065 C242.383326,80.2733604 241.31667,81.4488249 240.55,82.910235 C239.783329,84.3716451 239.266668,86.1030724 239,88.1045688 C238.733332,90.1060653 238.6,92.186955 238.6,94.3473003 L238.6,97.0159489 L251.2,97.0159489 L251.2,100.637686 L238.6,100.637686 L238.6,142.76421 L233.9,142.76421 Z M261,143.795981 C259.799994,143.795981 258.833337,143.38298 258.1,142.556965 C257.366663,141.730951 257,140.714333 257,139.507081 C257,138.29983 257.38333,137.283212 258.15,136.457197 C258.916671,135.631183 259.899994,135.218182 261.1,135.218182 C262.300006,135.218182 263.266663,135.631183 264,136.457197 C264.733337,137.283212 265.1,138.29983 265.1,139.507081 C265.1,140.777873 264.71667,141.810375 263.95,142.60462 C263.183329,143.398864 262.200006,143.795981 261,143.795981 Z M43,30.724599 L53.3,30.724599 C58.433359,30.724599 62.533318,29.4344121 65.6,26.8539995 C68.666682,24.273587 70.2,20.7900823 70.2,16.4033811 C70.2,11.5005973 68.5500165,7.93645592 65.25,5.71085011 C61.9499835,3.48524431 57.666693,2.3724581 52.4,2.3724581 C50.199989,2.3724581 48.300008,2.46922212 46.7,2.66275306 C45.099992,2.856284 43.866671,3.04981204 43,3.24334297 L43,30.724599 Z M123.6,52.9805457 C123.6,55.0448757 123.633333,57.0124108 123.7,58.8832099 C123.766667,60.7540089 123.866666,62.5602706 124,64.3020491 L119.4,64.3020491 L119.4,56.2705552 L119,56.2705552 C118.399997,57.3027202 117.633338,58.3671244 116.7,59.4637998 C115.766662,60.5604751 114.63334,61.5442426 113.3,62.4151318 C111.96666,63.2860211 110.433342,63.9956239 108.7,64.5439615 C106.966658,65.0922992 105.066677,65.3664639 103,65.3664639 C101.466659,65.3664639 99.766676,65.1084265 97.9,64.592344 C96.033324,64.0762615 94.300008,63.092494 92.7,61.6410119 C91.099992,60.1895299 89.7500055,58.1413582 88.65,55.4964353 C87.5499945,52.8515125 87,49.4002625 87,45.1425819 L87,17.8548558 L91.8,17.8548558 L91.8,44.174932 C91.8,46.6908342 92.0166645,48.9970433 92.45,51.0936285 C92.8833355,53.1902137 93.5833285,54.9964753 94.55,56.5124677 C95.5166715,58.0284601 96.7833255,59.2218829 98.35,60.0927722 C99.9166745,60.9636614 101.866655,61.3990995 104.2,61.3990995 C105.933342,61.3990995 107.533326,61.1249348 109,60.5765971 C110.466674,60.0282594 111.783327,59.3025293 112.95,58.3993849 C114.116672,57.4962405 115.116662,56.4963457 115.95,55.3996704 C116.783337,54.302995 117.433331,53.1740815 117.9,52.0128959 C118.166668,51.3032824 118.383332,50.5130429 118.55,49.6421537 C118.716667,48.7712645 118.8,47.884261 118.8,46.9811166 L118.8,17.8548558 L123.6,17.8548558 L123.6,52.9805457 Z M144,46.5940566 C144,47.1101392 144.033333,47.6584686 144.1,48.2390614 C144.166667,48.8196542 144.266666,49.4002383 144.4,49.9808312 C145.466672,53.657919 147.399986,56.5124575 150.2,58.5445324 C153.000014,60.5766073 156.199982,61.5926295 159.8,61.5926295 C162.46668,61.5926295 164.833323,61.0765547 166.9,60.0443897 C168.966677,59.0122247 170.716659,57.5768917 172.15,55.7383478 C173.583341,53.8998039 174.666663,51.7226135 175.4,49.2067113 C176.133337,46.6908091 176.5,43.9169072 176.5,40.8849225 C176.5,38.2399996 176.150004,35.6918805 175.45,33.2404886 C174.749997,30.7890967 173.700007,28.644161 172.3,26.805617 C170.899993,24.9670731 169.183343,23.4994855 167.15,22.4028102 C165.116657,21.3061349 162.76668,20.7578054 160.1,20.7578054 C156.633316,20.7578054 153.450015,21.8544643 150.55,24.0478149 C147.649986,26.2411656 145.666672,29.2408501 144.6,33.0469586 C144.466666,33.6275514 144.333334,34.2403902 144.2,34.8854934 C144.066666,35.5305965 144,36.2401993 144,37.014323 L144,46.5940566 Z M192,17.8548558 L204.2,48.0455314 C204.86667,49.7227996 205.499997,51.4484246 206.1,53.2224582 C206.700003,54.9964918 207.233331,56.6253528 207.7,58.10909 L207.9,58.10909 C208.366669,56.6898631 208.899997,55.0932568 209.5,53.3192232 C210.100003,51.5451896 210.766663,49.7228005 211.5,47.8520015 L222.9,17.8548558 L227.9,17.8548558 L214,51.9161309 C212.599993,55.5287084 211.28334,58.8025577 210.05,61.7377769 C208.816661,64.6729962 207.566673,67.3178793 206.3,69.6725058 C205.033327,72.0271322 203.750007,74.1075586 202.45,75.9138474 C201.149994,77.7201361 199.700008,79.3006151 198.1,80.6553317 C196.233324,82.2680895 194.516675,83.4453851 192.95,84.1872537 C191.383326,84.9291223 190.333336,85.396815 189.8,85.590346 L188.2,81.8165115 C189.400006,81.300429 190.733326,80.6230809 192.2,79.7844468 C193.666674,78.9458127 195.099993,77.8491539 196.5,76.4944373 C197.700006,75.3332516 199.01666,73.8011547 200.45,71.8981005 C201.883341,69.9950462 203.166661,67.6888371 204.3,64.979404 C204.700002,63.947239 204.9,63.2698908 204.9,62.9473393 C204.9,62.4957671 204.700002,61.8184189 204.3,60.9152746 L187,17.8548558 L192,17.8548558 Z M591.76,131.56 C592.880006,132.360004 594.179993,132.999998 595.66,133.48 C597.140007,133.960002 598.719992,134.2 600.4,134.2 C603.400015,134.2 605.749992,133.430008 607.45,131.89 C609.150009,130.349992 610,128.320013 610,125.8 C610,123.519989 609.370006,121.660007 608.11,120.22 C606.849994,118.779993 604.800014,117.480006 601.96,116.32 C598.839984,115.199994 596.360009,113.760009 594.52,112 C592.679991,110.239991 591.76,107.960014 591.76,105.16 C591.76,103.679993 592.049997,102.310006 592.63,101.05 C593.210003,99.7899937 594.009995,98.7100045 595.03,97.81 C596.050005,96.9099955 597.269993,96.2100025 598.69,95.71 C600.110007,95.2099975 601.659992,94.96 603.34,94.96 C605.220009,94.96 606.829993,95.159998 608.17,95.56 C609.510007,95.960002 610.519997,96.3799978 611.2,96.82 L610.12,99.22 C609.559997,98.819998 608.680006,98.4100021 607.48,97.99 C606.279994,97.5699979 604.840008,97.36 603.16,97.36 C601.559992,97.36 600.210006,97.5899977 599.11,98.05 C598.009995,98.5100023 597.130003,99.0999964 596.47,99.82 C595.809997,100.540004 595.330002,101.329996 595.03,102.19 C594.729999,103.050004 594.58,103.879996 594.58,104.68 C594.58,106.920011 595.239993,108.709993 596.56,110.05 C597.880007,111.390007 599.959986,112.619994 602.8,113.74 C604.440008,114.420003 605.879994,115.139996 607.12,115.9 C608.360006,116.660004 609.399996,117.499995 610.24,118.42 C611.080004,119.340005 611.709998,120.379994 612.13,121.54 C612.550002,122.700006 612.76,124.019993 612.76,125.5 C612.76,126.980007 612.500003,128.389993 611.98,129.73 C611.459997,131.070007 610.670005,132.249995 609.61,133.27 C608.549995,134.290005 607.230008,135.099997 605.65,135.7 C604.069992,136.300003 602.24001,136.6 600.16,136.6 C598.439991,136.6 596.690009,136.350002 594.91,135.85 C593.129991,135.349997 591.720005,134.720004 590.68,133.96 L591.76,131.56 Z M638.98,115.9 L623.14,115.9 L623.14,133.6 L640.84,133.6 L640.84,136 L620.32,136 L620.32,95.56 L639.94,95.56 L639.94,97.96 L623.14,97.96 L623.14,113.5 L638.98,113.5 L638.98,115.9 Z M647.68,96.04 C648.840006,95.839999 650.119993,95.6600008 651.52,95.5 C652.920007,95.3399992 654.459992,95.26 656.14,95.26 C658.540012,95.26 660.609991,95.5499971 662.35,96.13 C664.090009,96.7100029 665.519994,97.5399946 666.64,98.62 C667.600005,99.5800048 668.349997,100.719993 668.89,102.04 C669.430003,103.360007 669.7,104.879991 669.7,106.6 C669.7,108.68001 669.330004,110.499992 668.59,112.06 C667.849996,113.620008 666.840006,114.929995 665.56,115.99 C664.279994,117.050005 662.760009,117.839997 661,118.36 C659.239991,118.880003 657.32001,119.14 655.24,119.14 C653.439991,119.14 651.860007,119.000001 650.5,118.72 L650.5,136 L647.68,136 L647.68,96.04 Z M650.5,116.2 C651.180003,116.400001 651.939996,116.54 652.78,116.62 C653.620004,116.7 654.519995,116.74 655.48,116.74 C659.040018,116.74 661.81999,115.900008 663.82,114.22 C665.82001,112.539992 666.82,110.080016 666.82,106.84 C666.82,105.279992 666.560003,103.920006 666.04,102.76 C665.519997,101.599994 664.780005,100.650004 663.82,99.91 C662.859995,99.1699963 661.720007,98.6100019 660.4,98.23 C659.079993,97.8499981 657.620008,97.66 656.02,97.66 C654.739994,97.66 653.640005,97.7099995 652.72,97.81 C651.799995,97.9100005 651.060003,98.0199994 650.5,98.14 L650.5,116.2 Z M677.98,136.66 C677.259996,136.66 676.680002,136.400003 676.24,135.88 C675.799998,135.359997 675.58,134.720004 675.58,133.96 C675.58,133.199996 675.809998,132.560003 676.27,132.04 C676.730002,131.519997 677.319996,131.26 678.04,131.26 C678.760004,131.26 679.339998,131.519997 679.78,132.04 C680.220002,132.560003 680.44,133.199996 680.44,133.96 C680.44,134.760004 680.210002,135.409998 679.75,135.91 C679.289998,136.410003 678.700004,136.66 677.98,136.66 Z M585.6,83 L585.6,80.1 L591.6,73.8 C595.933355,69.533312 599.683317,65.666684 602.85,62.2 C606.016682,58.733316 608.649989,55.5166815 610.75,52.55 C612.85001,49.5833185 614.416661,46.7500135 615.45,44.05 C616.483338,41.3499865 617,38.566681 617,35.7 C617,33.833324 616.783335,32.0166755 616.35,30.25 C615.916664,28.4833245 615.166672,26.93334 614.1,25.6 C613.033328,24.26666 611.616675,23.1833375 609.85,22.35 C608.083324,21.5166625 605.86668,21.1 603.2,21.1 C601.666659,21.1 600.23334,21.2833315 598.9,21.65 C597.56666,22.0166685 596.333339,22.466664 595.2,23 C594.066661,23.533336 593.033338,24.1166635 592.1,24.75 C591.166662,25.3833365 590.36667,25.999997 589.7,26.6 L587.8,23.3 C589.80001,21.499991 592.166653,19.9833395 594.9,18.75 C597.633347,17.5166605 600.699983,16.9 604.1,16.9 C607.366683,16.9 610.133322,17.466661 612.4,18.6 C614.666678,19.733339 616.499993,21.166658 617.9,22.9 C619.300007,24.633342 620.299997,26.5499895 620.9,28.65 C621.500003,30.7500105 621.8,32.79999 621.8,34.8 C621.8,38.000016 621.250005,41.0833185 620.15,44.05 C619.049994,47.0166815 617.433344,50.0499845 615.3,53.15 C613.166656,56.2500155 610.550015,59.4833165 607.45,62.85 C604.349984,66.2166835 600.833353,69.89998 596.9,73.9 L592.3,78.8 L592.3,79 L623.6,79 L623.6,83 L585.6,83 Z M635.3,76 C636.433339,76.800004 638.233321,77.666662 640.7,78.6 C643.166679,79.533338 645.933318,80 649,80 C652.200016,80 654.84999,79.500005 656.95,78.5 C659.050011,77.499995 660.699994,76.2500075 661.9,74.75 C663.100006,73.2499925 663.933331,71.633342 664.4,69.9 C664.866669,68.166658 665.1,66.533341 665.1,65 C665.1,62.33332 664.566672,60.033343 663.5,58.1 C662.433328,56.166657 661.033342,54.5833395 659.3,53.35 C657.566658,52.1166605 655.583345,51.200003 653.35,50.6 C651.116656,49.999997 648.800012,49.7 646.4,49.7 L642.4,49.7 L642.4,45.8 L646.5,45.8 C648.233342,45.8 650.049991,45.533336 651.95,45 C653.85001,44.466664 655.583326,43.666672 657.15,42.6 C658.716675,41.533328 660.016662,40.166675 661.05,38.5 C662.083339,36.833325 662.6,34.866678 662.6,32.6 C662.6,31.066659 662.366669,29.600007 661.9,28.2 C661.433331,26.799993 660.700005,25.566672 659.7,24.5 C658.699995,23.433328 657.416675,22.5833365 655.85,21.95 C654.283326,21.3166635 652.400011,21 650.2,21 C647.733321,21 645.416678,21.466662 643.25,22.4 C641.083323,23.333338 639.300007,24.366661 637.9,25.5 L636,21.9 C637.533341,20.699994 639.63332,19.566672 642.3,18.5 C644.96668,17.433328 647.799985,16.9 650.8,16.9 C653.800015,16.9 656.34999,17.333329 658.45,18.2 C660.550011,19.066671 662.283327,20.2166595 663.65,21.65 C665.016674,23.0833405 665.999997,24.699991 666.6,26.5 C667.200003,28.300009 667.5,30.133324 667.5,32 C667.5,35.33335 666.483344,38.366653 664.45,41.1 C662.416657,43.833347 659.433353,45.933326 655.5,47.4 L655.5,47.6 C657.50001,48.000002 659.383325,48.6833285 661.15,49.65 C662.916676,50.6166715 664.449994,51.8166595 665.75,53.25 C667.050007,54.6833405 668.08333,56.366657 668.85,58.3 C669.616671,60.233343 670,62.399988 670,64.8 C670,67.266679 669.566671,69.6499885 668.7,71.95 C667.833329,74.2500115 666.500009,76.299991 664.7,78.1 C662.899991,79.900009 660.650014,81.3499945 657.95,82.45 C655.249987,83.5500055 652.066685,84.1 648.4,84.1 C645.199984,84.1 642.250014,83.633338 639.55,82.7 C636.849987,81.766662 634.800007,80.800005 633.4,79.8 L635.3,76 Z M313.275,72.4 L313.275,76.725 L304.4,76.725 L304.4,88.8 L306.775,88.8 L306.775,87.375 L313.275,87.375 L313.275,95.75 L315.725,95.75 L315.725,87.375 L322.25,87.375 L322.25,88.8 L324.625,88.8 L324.625,76.725 L315.725,76.725 L315.725,72.4 L313.275,72.4 Z M306.775,85.05 L306.775,79.05 L313.275,79.05 L313.275,85.05 L306.775,85.05 Z M315.725,85.05 L315.725,79.05 L322.25,79.05 L322.25,85.05 L315.725,85.05 Z M350,73.45 L329,73.45 L329,95.525 L331.4,95.525 L331.4,94.575 L347.6,94.575 L347.6,95.525 L350,95.525 L350,73.45 Z M331.4,92.35 L331.4,75.7 L347.6,75.7 L347.6,92.35 L331.4,92.35 Z M333.3,77.425 L333.3,79.575 L338.3,79.575 L338.3,82.65 L334.1,82.65 L334.1,84.75 L338.3,84.75 L338.3,88.225 L332.625,88.225 L332.625,90.375 L346.4,90.375 L346.4,88.225 L343.85,88.225 L345.2,87.625 C344.775,86.675 344.275,85.825 343.7,85.025 L341.825,85.625 C342.325,86.375 342.8,87.225 343.25,88.225 L340.7,88.225 L340.7,84.75 L344.9,84.75 L344.9,82.65 L340.7,82.65 L340.7,79.575 L345.675,79.575 L345.675,77.425 L333.3,77.425 Z M315.175,119 L312.375,119 C312.108332,118.499997 311.741669,117.166677 311.275,115 C311.041665,113.866661 310.687502,113.070836 310.2125,112.6125 C309.737498,112.154164 309.050004,111.925 308.15,111.925 L306.475,111.925 L306.475,119 L303.8,119 L303.8,102.375 C305.033339,102.141665 306.491658,102.025 308.175,102.025 C310.458345,102.025 312.124995,102.474995 313.175,103.375 C314.108338,104.175004 314.575,105.283326 314.575,106.7 C314.575,107.733338 314.26667,108.641663 313.65,109.425 C313.099997,110.125003 312.383338,110.633332 311.5,110.95 L311.5,111 C312.650006,111.433335 313.441664,112.549991 313.875,114.35 C314.208335,115.750007 314.449999,116.716664 314.6,117.25 C314.833334,118.133338 315.024999,118.716665 315.175,119 Z M311.875,106.975 C311.875,105.058324 310.725011,104.091667 308.425,104.075 C307.558329,104.075 306.908335,104.133333 306.475,104.25 L306.475,109.925 L308.375,109.925 C309.441672,109.925 310.291663,109.654169 310.925,109.1125 C311.558336,108.570831 311.875,107.858338 311.875,106.975 Z M327.875,119 L325.5,119 L325.35,117.15 L325.3,117.15 C324.449996,118.566674 323.166675,119.275 321.45,119.275 C320.249994,119.275 319.29167,118.900004 318.575,118.15 C317.724996,117.233329 317.3,115.850009 317.3,114 L317.3,106.85 L320,106.85 L320,113.55 C320,115.883345 320.799992,117.05 322.4,117.05 C323.600006,117.05 324.433331,116.466672 324.9,115.3 C325.016667,114.999998 325.075,114.658335 325.075,114.275 L325.075,106.85 L327.775,106.85 L327.775,115.5 C327.775,116.650006 327.808333,117.816661 327.875,119 Z M342.775,112.75 C342.775,114.80001 342.208339,116.433327 341.075,117.65 C340.074995,118.733339 338.850007,119.275 337.4,119.275 C335.666658,119.275 334.391671,118.55834 333.575,117.125 L333.525,117.125 L333.375,119 L331.075,119 C331.141667,118.016662 331.175,116.925006 331.175,115.725 L331.175,101.275 L333.875,101.275 L333.875,108.625 L333.925,108.625 C334.725004,107.274993 336.016658,106.6 337.8,106.6 C339.266674,106.6 340.462495,107.162494 341.3875,108.2875 C342.312505,109.412506 342.775,110.899991 342.775,112.75 Z M340.025,112.85 C340.025,111.666661 339.758336,110.700004 339.225,109.95 C338.641664,109.133329 337.850005,108.725 336.85,108.725 C336.18333,108.725 335.583336,108.941664 335.05,109.375 C334.516664,109.808335 334.158334,110.38333 333.975,111.1 C333.908333,111.383335 333.875,111.666665 333.875,111.95 L333.875,114.075 C333.875,114.908337 334.154164,115.624997 334.7125,116.225 C335.270836,116.825003 335.966662,117.125 336.8,117.125 C337.816672,117.125 338.608331,116.74167 339.175,115.975 C339.74167,115.208329 340.025,114.166673 340.025,112.85 Z M355.325,106.85 L352.25,115.275 C350.783326,119.258353 349.40834,121.824994 348.125,122.975 C347.174995,123.825004 346.183338,124.333332 345.15,124.5 L344.5,122.225 C345.11667,122.041666 345.724997,121.725002 346.325,121.275 C347.04167,120.724997 347.608331,120.016671 348.025,119.15 C348.158334,118.899999 348.225,118.716667 348.225,118.6 C348.225,118.483333 348.175,118.291668 348.075,118.025 L343.675,106.85 L346.65,106.85 L348.95,113.625 C349.166668,114.24167 349.408332,115.041662 349.675,116.025 L349.725,116.025 C349.875001,115.491664 350.099998,114.683339 350.4,113.6 L352.45,106.85 L355.325,106.85 Z M304.675,125.825 L304.675,128.125 L309.075,128.125 L309.075,133.575 C309.075,133.725 309.05,133.925 309.05,134.125 L303.375,134.125 L303.375,136.425 L308.875,136.425 C308.675,138.2 308.35,139.75 307.875,141.05 C307.15,142.85 305.775,144.35 303.775,145.525 L305.05,147.525 C307.275,146.4 308.875,144.775 309.825,142.675 C310.575,141 311.05,138.925 311.3,136.425 L318,136.425 L318,147.25 L320.375,147.25 L320.375,136.425 L325.65,136.425 L325.65,134.125 L320.375,134.125 L320.375,128.125 L324.375,128.125 L324.375,125.825 L304.675,125.825 Z M311.475,128.125 L318,128.125 L318,134.125 L311.45,134.125 C311.45,133.95 311.475,133.775 311.475,133.575 L311.475,128.125 Z M329.575,132.525 L335.675,132.525 C333.975,137.775 331.4,141.925 327.95,144.975 L329.175,147.175 C331.9,144.975 334.175,142.025 335.975,138.325 C336.775,139.8 338,141.2 339.625,142.5 C337.85,143.575 335.7,144.575 333.2,145.475 L334.45,147.725 C337.325,146.6 339.75,145.35 341.725,143.975 C343.775,145.275 346.325,146.5 349.35,147.6 L350.575,145.35 C347.9,144.45 345.6,143.475 343.7,142.425 C345.55,140.775 346.775,138.925 347.425,136.875 L347.425,134.875 L337.425,134.875 C337.675,134.125 337.95,133.35 338.2,132.525 L350.25,132.525 L350.25,130.25 L338.8,130.25 C339.225,128.525 339.6,126.675 339.9,124.7 L337.475,124.4 C337.175,126.45 336.8,128.4 336.325,130.25 L332.625,130.25 L333.925,125.625 L331.55,125.225 L329.575,132.525 Z M337.7,137.025 L345.025,137.025 C344.325,138.475 343.175,139.85 341.6,141.125 C339.825,139.875 338.525,138.5 337.7,137.025 Z M344.1,124.425 L342.5,126 C344.35,127.425 345.75,128.775 346.75,130.075 L348.45,128.375 C347.275,127.05 345.825,125.725 344.1,124.425 Z M355.425,126.9 L355.425,129.125 L362.225,129.125 L362.225,131.55 L353.35,131.55 L353.35,133.8 L363.95,133.8 C360.55,135.7 356.875,137.075 352.975,137.975 L353.95,140.175 C355.3,139.7 356.6,139.225 357.85,138.775 L357.85,147.625 L360.25,147.625 L360.25,146.675 L370.325,146.675 L370.325,147.625 L372.7,147.625 L372.7,136.075 L364.225,136.075 C365.425,135.5 366.475,134.925 367.4,134.375 C367.7,134.175 368,134 368.3,133.8 L375.775,133.8 L375.775,131.55 L371.275,131.55 C372.725,130.3 374.075,128.925 375.35,127.375 L373.575,126.05 C371.925,128.05 369.925,129.9 367.575,131.55 L364.625,131.55 L364.625,129.125 L370.175,129.125 L370.175,126.9 L364.625,126.9 L364.625,124.45 L362.225,124.45 L362.225,126.9 L355.425,126.9 Z M360.25,142.325 L370.325,142.325 L370.325,144.575 L360.25,144.575 L360.25,142.325 Z M370.325,140.275 L360.25,140.275 L360.25,138.125 L370.325,138.125 L370.325,140.275 Z M378.45,130.875 L378.45,133.175 L387.625,133.175 C386.3,139.025 383.05,143.225 377.9,145.725 L379.425,147.725 C384.5,145.05 387.875,140.85 389.525,135.125 C391.425,140.425 394.8,144.55 399.6,147.5 L401.075,145.575 C396.125,142.65 392.75,138.525 391,133.175 L400.55,133.175 L400.55,130.875 L390.4,130.875 C390.6,129.375 390.7,127.8 390.7,126.15 L390.7,124.525 L388.3,124.525 L388.3,126.7 C388.275,128.15 388.175,129.55 388.025,130.875 L378.45,130.875 Z M413.625,124.45 C410.725,127.725 407.075,130.45 402.7,132.65 L403.975,134.95 C405.525,134.1 406.975,133.2 408.325,132.25 L408.325,134.225 L420.75,134.225 L420.75,132.35 C422.05,133.3 423.425,134.15 424.925,134.925 L426.225,132.625 C422.125,130.625 418.525,127.9 415.375,124.45 L413.625,124.45 Z M408.7,131.975 C410.95,130.35 412.875,128.55 414.5,126.575 C416.175,128.575 418.1,130.375 420.25,131.975 L408.7,131.975 Z M404.4,137 L404.4,139.3 L410.25,139.3 C409.3,141.05 408.15,142.7 406.8,144.275 C406.55,144.55 406.15,144.775 405.575,144.925 L406.225,146.975 C412.075,146.625 416.95,146.15 420.825,145.55 C421.3,146.225 421.75,146.9 422.175,147.55 L424.15,146.15 C422.9,144.325 421.15,142.175 418.875,139.7 L417.025,140.875 C417.925,141.875 418.75,142.85 419.5,143.825 C416.15,144.225 412.7,144.525 409.1,144.725 C410.575,143.175 411.875,141.375 413,139.3 L424.65,139.3 L424.65,137 L404.4,137 Z" id="Rectangle-4" fill="#FFFFFF"></path>
                <path d="M625.099955,0 L563.5,77.5" id="Path-101" stroke="#F52D4A" stroke-width="2"></path>
            </g>
        </g>
    </g>
</svg>